<svg id="Layer_1" data-name="Layer 1" xmlns="http://www.w3.org/2000/svg" viewBox="0 0 255.5 137.09"><defs><style>.cls-1{fill:#fff;}.cls-2{fill:#4210dd;}.cls-3,.cls-4,.cls-5,.cls-6{fill:none;}.cls-3{stroke:#3514db;}.cls-3,.cls-4,.cls-5,.cls-6,.cls-7,.cls-8{stroke-miterlimit:10;}.cls-3,.cls-4,.cls-5{stroke-width:5px;}.cls-4,.cls-6,.cls-7,.cls-8{stroke:#3999c6;}.cls-5{stroke:#fccc15;}.cls-6,.cls-7{stroke-width:4px;}.cls-7{fill:#17eeff;}.cls-8{font-size:115px;fill:#3999c6;font-family:OCRAExtended, OCR A Extended;}</style></defs><title>cloudful</title><path class="cls-1" d="M-2.07-27.78" transform="translate(-99.93 -70.13)"/><path class="cls-2" d="M23.93-32.78" transform="translate(-99.93 -70.13)"/><path class="cls-3" d="M267,123.7" transform="translate(-99.93 -70.13)"/><path class="cls-3" d="M262.37,119.36" transform="translate(-99.93 -70.13)"/><path class="cls-4" d="M315.41,121.4c.75-22.65-20.55-40.56-42.74-35.94a35.65,35.65,0,0,0-17.76,9.59" transform="translate(-99.93 -70.13)"/><line class="cls-5" x1="184.93" y1="44.13" x2="142.07" y2="98.05"/><line class="cls-5" x1="200.5" y1="58.59" x2="169.5" y2="97.59"/><line class="cls-5" x1="217.86" y1="72.56" x2="197.14" y2="98.62"/><path class="cls-6" d="M317.93,119.72a35.5,35.5,0,0,1,0,71" transform="translate(-99.93 -70.13)"/><line class="cls-7" x1="15" y1="120.09" x2="220.5" y2="120.59"/><text x="-99.93" y="-70.13"></text><text class="cls-8" transform="translate(16 107.72)">CF</text></svg>